<svg data-noselect="" viewBox="0 0 400 300" width="400" height="300" preserveAspectRatio="none" version="1.1" xmlns="http://www.w3.org/2000/svg" style="background: rgba(255, 255, 255, 0);"><defs></defs> <g id="shape_w6uU2dhENL" transform="translate(184.8358738660586,53.52045670789723) rotate(0,0,0) scale(1.7840152235965745,1.7840152235965745)" filter="" style="cursor: move; opacity: 1;"><g><rect fill="rgba(0,0,0,0)" width="37" height="73" x="-10" y="-10"></rect><svg xmlns="http://www.w3.org/2000/svg" xmlns:xlink="http://www.w3.org/1999/xlink" shape-rendering="auto" text-rendering="auto" contentscripttype="text/ecmascript" color-rendering="auto" color-interpolation="auto" xml:space="preserve" preserveAspectRatio="none" image-rendering="auto" zoomAndPan="magnify" version="1.1" contentstyletype="text/css" x="0px" enable-background="new 0 0 26.282 62.766" y="0px" viewBox="3 3 17.283000946044922 53.76599884033203" width="17" height="53" data-parent="shape_w6uU2dhENL">
 <g fill="#5C6978" id="layer4">
  <path clip-rule="evenodd" d="M11.641,24.989l4.321,2.495l2.059,1.189   c1.439,0.831,2.262,2.257,2.262,3.918v16.575c0,1.661-0.823,3.088-2.262,3.918l-2.059,1.188l-4.321,2.494L8.343,41.372   L11.641,24.989z" fill-rule="evenodd"></path>
 </g>
 <g fill="#243446" id="layer3">
  <path clip-rule="evenodd" d="M11.641,56.766L7.32,54.272l-2.059-1.188   C3.823,52.253,3,50.827,3,49.166V32.591c0-1.661,0.823-3.088,2.262-3.918l2.059-1.189l4.321-2.495V56.766z" fill-rule="evenodd"></path>
 </g>
 <g fill="#A92512" id="layer2">
  <path clip-rule="evenodd" d="M11.641,22.956L7.32,20.461l-2.059-1.188   C3.823,18.443,3,17.016,3,15.355v-2.377v-2.377C3,8.94,3.823,7.514,5.262,6.683L7.32,5.495L11.641,3V22.956z" fill-rule="evenodd"></path>
 </g>
 <g fill="#E72D18" id="layer1_1_">
  <path clip-rule="evenodd" d="M11.641,3l4.321,2.495l2.059,1.189   c1.439,0.831,2.262,2.257,2.262,3.918v2.377v2.377c0,1.661-0.823,3.088-2.262,3.918l-2.059,1.188l-4.321,2.494L9.928,12.893   L11.641,3z" fill-rule="evenodd"></path>
 </g>
 <!--Copyright (c) Logomaker.com.cn  @2017-01-03-->
</svg></g> <!----></g><g id="shapge_brbGXYsPWo" transform="translate(83.00428163653669,156.99333967649855) rotate(0,65.58,25.080000000000002) scale(1.7840152235965745,1.7840152235965745)" filter="" style="cursor: move; opacity: 1;"><g><svg xmlns="http://www.w3.org/2000/svg" version="1.1" xmlns:xlink="http://www.w3.org/1999/xlink" overflow="hidden" style="top:0; left: 0" width="131.16" height="50.160000000000004" viewBox="0 0 131.16 50.160000000000004" preserveAspectRatio="none" data-parent="shapge_brbGXYsPWo"><rect fill="rgba(0,0,0,0)" width="131.16" height="50.160000000000004"></rect> <rect opacity="0"></rect><g transform="translate(0 0)" data-width="126.16"><path fill="#5C6978" d="M6.95 0L3.50 0L3.50-20.63L6.95-20.63L6.95 0ZM5.24-24.89L5.24-24.89L5.24-24.89Q4.22-24.89 3.53-25.54L3.53-25.54L3.53-25.54Q2.85-26.18 2.85-27.13L2.85-27.13L2.85-27.13Q2.85-29.26 5.24-29.37L5.24-29.37L5.24-29.37Q6.27-29.37 6.95-28.79L6.95-28.79L6.95-28.79Q7.64-28.20 7.64-27.13L7.64-27.13L7.64-27.13Q7.64-26.18 6.95-25.54L6.95-25.54L6.95-25.54Q6.27-24.89 5.24-24.89Z" transform="translate(0 33.44)"></path><path fill="#5C6978" d="M13.15 0L9.61 0L9.61-24.89L1.18-24.89L1.18-27.85L21.58-27.85L21.58-24.89L13.15-24.89L13.15 0Z" transform="translate(10.45 33.44)"></path><path fill="#5C6978" d="M8.25 0.49L8.25 0.49L8.25 0.49Q5.66 0.49 3.93-1.04L3.93-1.04L3.93-1.04Q2.20-2.58 2.20-5.36L2.20-5.36L2.20-5.36Q2.20-8.74 5.28-10.54L5.28-10.54L5.28-10.54Q8.36-12.35 14.90-13.07L14.90-13.07L14.90-13.07Q14.90-14.40 14.54-15.60L14.54-15.60L14.54-15.60Q14.17-16.80 13.26-17.54L13.26-17.54L13.26-17.54Q12.35-18.28 10.64-18.28L10.64-18.28L10.64-18.28Q8.85-18.28 7.28-17.61L7.28-17.61L7.28-17.61Q5.70-16.95 4.45-16.07L4.45-16.07L3.08-18.47L3.08-18.47Q4.52-19.42 6.63-20.29L6.63-20.29L6.63-20.29Q8.74-21.17 11.21-21.17L11.21-21.17L11.21-21.17Q14.97-21.17 16.66-18.85L16.66-18.85L16.66-18.85Q18.35-16.53 18.35-12.69L18.35-12.69L18.35 0L15.50 0L15.20-2.47L15.09-2.47L15.09-2.47Q13.60-1.22 11.88-0.36L11.88-0.36L11.88-0.36Q10.15 0.49 8.25 0.49ZM9.23-2.28L9.23-2.28L9.23-2.28Q10.75-2.28 12.08-2.98L12.08-2.98L12.08-2.98Q13.41-3.69 14.90-5.02L14.90-5.02L14.90-10.79L14.90-10.79Q9.77-10.18 7.68-8.89L7.68-8.89L7.68-8.89Q5.59-7.60 5.59-5.59L5.59-5.59L5.59-5.59Q5.59-3.84 6.65-3.06L6.65-3.06L6.65-3.06Q7.71-2.28 9.23-2.28Z" transform="translate(33.212 33.44)"></path><path fill="#5C6978" d="M6.95 0L3.50 0L3.50-20.63L6.35-20.63L6.65-16.87L6.76-16.87L6.76-16.87Q7.87-18.85 9.37-20.01L9.37-20.01L9.37-20.01Q10.87-21.17 12.62-21.17L12.62-21.17L12.62-21.17Q13.98-21.17 14.82-20.71L14.82-20.71L14.17-17.67L14.17-17.67Q13.68-17.86 13.24-17.94L13.24-17.94L13.24-17.94Q12.81-18.01 12.16-18.01L12.16-18.01L12.16-18.01Q10.87-18.01 9.44-16.95L9.44-16.95L9.44-16.95Q8.02-15.88 6.95-13.26L6.95-13.26L6.95 0Z" transform="translate(54.644000000000005 33.44)"></path><path fill="#5C6978" d="M10.45 9.50L10.45 9.50L10.45 9.50Q6.65 9.50 4.27 8.06L4.27 8.06L4.27 8.06Q1.90 6.61 1.90 3.95L1.90 3.95L1.90 3.95Q1.90 1.33 4.98-0.72L4.98-0.72L4.98-0.87L4.98-0.87Q4.14-1.37 3.61-2.20L3.61-2.20L3.61-2.20Q3.08-3.04 3.08-4.26L3.08-4.26L3.08-4.26Q3.08-5.55 3.82-6.54L3.82-6.54L3.82-6.54Q4.56-7.52 5.40-8.09L5.40-8.09L5.40-8.25L5.40-8.25Q4.33-9.08 3.52-10.51L3.52-10.51L3.52-10.51Q2.70-11.93 2.70-13.79L2.70-13.79L2.70-13.79Q2.70-17.18 5.02-19.17L5.02-19.17L5.02-19.17Q7.33-21.17 10.45-21.17L10.45-21.17L10.45-21.17Q12.16-21.17 13.34-20.63L13.34-20.63L20.52-20.63L20.52-17.97L16.30-17.97L16.30-17.97Q17.97-16.42 17.97-13.72L17.97-13.72L17.97-13.72Q17.97-10.41 15.79-8.47L15.79-8.47L15.79-8.47Q13.60-6.54 10.45-6.54L10.45-6.54L10.45-6.54Q8.93-6.54 7.37-7.26L7.37-7.26L7.37-7.26Q6.80-6.80 6.42-6.23L6.42-6.23L6.42-6.23Q6.04-5.66 6.04-4.79L6.04-4.79L6.04-4.79Q6.04-3.80 6.80-3.17L6.80-3.17L6.80-3.17Q7.56-2.55 9.65-2.55L9.65-2.55L13.68-2.55L13.68-2.55Q20.86-2.55 20.86 2.36L20.86 2.36L20.86 2.36Q20.86 5.24 18.05 7.37L18.05 7.37L18.05 7.37Q15.24 9.50 10.45 9.50ZM10.45-8.89L10.45-8.89L10.45-8.89Q12.24-8.89 13.53-10.22L13.53-10.22L13.53-10.22Q14.82-11.55 14.82-13.79L14.82-13.79L14.82-13.79Q14.82-16.04 13.55-17.33L13.55-17.33L13.55-17.33Q12.27-18.62 10.45-18.62L10.45-18.62L10.45-18.62Q8.63-18.62 7.33-17.35L7.33-17.35L7.33-17.35Q6.04-16.07 6.04-13.79L6.04-13.79L6.04-13.79Q6.04-11.55 7.35-10.22L7.35-10.22L7.35-10.22Q8.66-8.89 10.45-8.89ZM10.94 7.14L10.94 7.14L10.94 7.14Q13.91 7.14 15.71 5.83L15.71 5.83L15.71 5.83Q17.52 4.52 17.52 2.89L17.52 2.89L17.52 2.89Q17.52 1.44 16.43 0.89L16.43 0.89L16.43 0.89Q15.35 0.34 13.30 0.34L13.30 0.34L9.73 0.34L9.73 0.34Q8.59 0.34 7.07 0L7.07 0L7.07 0Q4.94 1.67 4.94 3.50L4.94 3.50L4.94 3.50Q4.94 5.13 6.54 6.14L6.54 6.14L6.54 6.14Q8.13 7.14 10.94 7.14Z" transform="translate(69.388 33.44)"></path><path fill="#5C6978" d="M11.82 0.49L11.82 0.49L11.82 0.49Q9.08 0.49 6.84-0.78L6.84-0.78L6.84-0.78Q4.60-2.05 3.27-4.48L3.27-4.48L3.27-4.48Q1.94-6.92 1.94-10.30L1.94-10.30L1.94-10.30Q1.94-13.64 3.27-16.07L3.27-16.07L3.27-16.07Q4.60-18.51 6.73-19.84L6.73-19.84L6.73-19.84Q8.85-21.17 11.25-21.17L11.25-21.17L11.25-21.17Q15.20-21.17 17.33-18.52L17.33-18.52L17.33-18.52Q19.46-15.88 19.46-11.48L19.46-11.48L19.46-11.48Q19.46-10.34 19.30-9.50L19.30-9.50L5.40-9.50L5.40-9.50Q5.62-6.16 7.47-4.22L7.47-4.22L7.47-4.22Q9.31-2.28 12.24-2.28L12.24-2.28L12.24-2.28Q13.76-2.28 15.01-2.72L15.01-2.72L15.01-2.72Q16.26-3.15 17.40-3.91L17.40-3.91L18.66-1.63L18.66-1.63Q17.29-0.72 15.62-0.11L15.62-0.11L15.62-0.11Q13.95 0.49 11.82 0.49ZM5.36-11.97L5.36-11.97L16.42-11.97L16.42-11.97Q16.42-18.24 11.29-18.39L11.29-18.39L11.29-18.39Q9.08-18.39 7.41-16.72L7.41-16.72L7.41-16.72Q5.74-15.05 5.36-11.97Z" transform="translate(90.78200000000001 33.44)"></path><path fill="#5C6978" d="M9.99 0.49L9.99 0.49L9.99 0.49Q6.69 0.49 5.40-1.39L5.40-1.39L5.40-1.39Q4.10-3.27 4.10-6.38L4.10-6.38L4.10-17.82L1.03-17.82L1.03-20.44L4.26-20.63L4.67-26.41L7.56-26.41L7.56-20.63L13.15-20.63L13.15-17.82L7.56-17.82L7.56-6.31L7.56-6.31Q7.56-4.41 8.27-3.36L8.27-3.36L8.27-3.36Q8.97-2.32 10.75-2.32L10.75-2.32L10.75-2.32Q11.29-2.32 11.93-2.49L11.93-2.49L11.93-2.49Q12.58-2.66 13.11-2.85L13.11-2.85L13.79-0.27L13.79-0.27Q12.92 0.04 11.93 0.27L11.93 0.27L11.93 0.27Q10.94 0.49 9.99 0.49Z" transform="translate(111.834 33.44)"></path></g></svg></g> <!----></g>  <!----></svg>